<svg id="Layer_1" data-name="Layer 1" xmlns="http://www.w3.org/2000/svg" viewBox="0 0 1500 553"><defs><style>.cls-1{fill:#eb001b;}.cls-2{fill:#012169;}</style></defs><title>Artboard 1</title><path class="cls-1" d="M35.88,67.9h64.21a20.78,20.78,0,0,1,20.78,20.78V344.5h53.87a20.79,20.79,0,0,0,20.78-20.78v-235A20.77,20.77,0,0,1,216.29,67.9h85v-40A20.77,20.77,0,0,0,280.5,7.13H15.11v40A20.77,20.77,0,0,0,35.88,67.9Z"/><path class="cls-1" d="M479.56,103.79q-23.93,0-43.31,9.33-3.54,1.71-6.85,3.71a16.36,16.36,0,0,1-25-13.86V27.9A20.77,20.77,0,0,0,383.65,7.13H332.17V344.5h51.48a20.78,20.78,0,0,0,20.78-20.78V212.9q0-23.93,13.64-38.28t36.13-14.36q18.66,0,27.52,11t8.85,34.94V323.72a20.78,20.78,0,0,0,20.78,20.78h51.48V202.85q0-49.77-20.58-74.41T479.56,103.79Z"/><path class="cls-1" d="M826,161a104.25,104.25,0,0,0-43.55-42.35q-28.23-14.84-65.56-14.84t-65.56,14.84A104.17,104.17,0,0,0,607.74,161q-15.33,27.53-15.32,64.84t15.32,64.84a105.62,105.62,0,0,0,43.54,42.59q28.23,15.08,65.56,15.07t65.56-15.07A105.71,105.71,0,0,0,826,290.66q15.31-27.51,15.31-64.84T826,161ZM716.84,293.29q-52.64,0-52.64-67.47t52.64-67.47q25.36,0,39,16.74t13.64,50.73Q769.48,293.29,716.84,293.29Z"/><path class="cls-2" d="M1050.66,103.79a6.76,6.76,0,0,1-8.61,6.49l-.72-.21a179.94,179.94,0,0,0-66.9-7.1,153.92,153.92,0,0,0-31.1,5.8,96.17,96.17,0,0,0-10.39,3.77,88.22,88.22,0,0,0-11.25,5.85Q898,133,884.6,159.54T871.21,221a149.24,149.24,0,0,0,4.9,39.09,116.37,116.37,0,0,0,11.6,30.54,105.65,105.65,0,0,0,43.55,42.59q28.23,15.08,65.56,15.07a153.3,153.3,0,0,0,37.34-4.36,13.78,13.78,0,0,1,17,13.46v18.92c0,35.69-18.14,43.89-54.32,45.45l-47.19.27a20.78,20.78,0,0,0-20.76,20.63l-.29,43.67h68.24q61.3-.71,93.08-29.15,32.53-29.19,32.54-86.13V106.38a2.59,2.59,0,0,0-2.59-2.59h-69.19Zm-2,137.24q-5.57,52.25-51.87,52.26-46.68,0-51.93-53.08c-.45-4.52-.71-9.29-.71-14.39q0-33.06,12.67-49.87,14.42-17.1,40.21-17.13,18.71,0,31.28,9a43.83,43.83,0,0,1,7.48,7.26q13.64,16.75,13.64,50.73A145.37,145.37,0,0,1,1048.69,241Z"/><path class="cls-1" d="M1261.49,103.79q-25.37,0-54.79,8.38a227.89,227.89,0,0,0-32.24,11.64A20.67,20.67,0,0,0,1164,150.25l12.3,31.07a186.2,186.2,0,0,1,40.2-17.23q21-6.22,38.28-6.22,22.49,0,31.58,8.61t9.1,29.67a8.61,8.61,0,0,1-8.62,8.61H1283q-50.73,0-79.91,6.7T1160.76,233q-13.17,14.83-13.16,40.67A68.53,68.53,0,0,0,1158.84,312a75.82,75.82,0,0,0,30.63,26.79q19.38,9.57,43.31,9.57,22.48,0,39.24-10.28a58.76,58.76,0,0,0,13.07-10.8,6.21,6.21,0,0,1,10.85,4.12V344.5h47.66a20.79,20.79,0,0,0,20.78-20.78v-118q0-52.15-25.13-77.05T1261.49,103.79Zm34,144q0,22.5-12.93,36.61t-34,14.12q-13.41,0-22.25-8.62a28.78,28.78,0,0,1-8.86-21.53q0-16.26,15.56-22.49t54.31-6.22h0A8.14,8.14,0,0,1,1295.47,247.83Z"/><path class="cls-2" d="M122.22,492.25l.21-.49a13,13,0,0,1,17.2-6.89,56.07,56.07,0,0,0,22.55,4.47q9.49,0,14.55-3.2a10.11,10.11,0,0,0,5-9,9.91,9.91,0,0,0-3.4-7.95q-3.39-2.91-11.73-4.85l-15.72-3.49q-12.6-2.91-19-9.51t-6.4-16.68q0-12.81,10.38-20.76t27.26-7.95a57.4,57.4,0,0,1,19.2,3.2,46.93,46.93,0,0,1,15.72,9,13.2,13.2,0,0,1-17.68,6.55,41.29,41.29,0,0,0-17.24-3.83q-8.93,0-14.07,3.49a10.92,10.92,0,0,0-5.14,9.5,10.29,10.29,0,0,0,3.2,7.86q3.2,3,10.19,4.56l16.1,3.68q13.77,3.1,20.17,9.61A22.65,22.65,0,0,1,200,475a25,25,0,0,1-9.71,21.38q-10.47,7.95-28.67,7.94Q137,504.28,122.22,492.25Z"/><path class="cls-2" d="M421.06,444.14v58.78h-6.61a13,13,0,0,1-13-13V445.12q0-12-4.76-17.66t-14.84-5.62q-11.83,0-19,7.37T355.68,449v40.95a13,13,0,0,1-13,13h-6.61V361h6.61a13,13,0,0,1,13,13v48.66a32.37,32.37,0,0,1,13-12.41,39,39,0,0,1,18.43-4.27Q421.06,405.93,421.06,444.14Z"/><path class="cls-2" d="M571.5,498.27a40.51,40.51,0,0,1-16.29-17.17q-5.73-11.16-5.73-25.9,0-14.93,5.73-26.09a40.51,40.51,0,0,1,16.29-17.17q10.57-6,24.54-6t24.54,6a40.51,40.51,0,0,1,16.29,17.17q5.73,11.16,5.73,26.09,0,14.74-5.73,25.9a40.51,40.51,0,0,1-16.29,17.17q-10.58,6-24.54,6T571.5,498.27Zm44.43-18q6.87-8.53,6.88-25,0-16.29-7-24.93T596,421.64q-12.81,0-19.79,8.63t-7,24.93q0,16.5,6.89,25T596,488.76Q609,488.76,615.93,480.23Z"/><path class="cls-2" d="M839.7,412.14a41.24,41.24,0,0,1,14.93,17.46q5.34,11.25,5.34,26,0,14.55-5.24,25.61a39.56,39.56,0,0,1-14.84,17.07,40.59,40.59,0,0,1-22,6,37.85,37.85,0,0,1-18.81-4.56,30,30,0,0,1-12.42-13.09v43.49a15.51,15.51,0,0,1-15.52,15.51h-4.07V408.26h4.07a15.51,15.51,0,0,1,15.52,15.51,30.68,30.68,0,0,1,12.42-13.19,37.27,37.27,0,0,1,18.81-4.65A39.32,39.32,0,0,1,839.7,412.14Zm-6.7,68q7-8.62,7-24.54,0-16.09-7.08-25t-19.69-8.93q-12.81,0-19.7,8.73t-6.88,24.83q0,16.11,6.88,24.83t19.7,8.73Q826,488.76,833,480.13Z"/><path class="cls-1" d="M1471.63,267.93q-13.26-12.83-34-12.84-20.3,0-33.77,12.84t-13.46,33.57q0,20.31,13.67,33.57t33.56,13.25q20.31,0,33.77-13.25t13.47-33.57Q1484.89,280.78,1471.63,267.93Z"/></svg>