<?xml version="1.0" encoding="utf-8"?>
<!-- Generator: Adobe Illustrator 22.1.0, SVG Export Plug-In . SVG Version: 6.00 Build 0)  -->
<svg version="1.1" id="Layer_1" xmlns="http://www.w3.org/2000/svg" xmlns:xlink="http://www.w3.org/1999/xlink" x="0px" y="0px"
	 viewBox="0 0 970 194.1" style="enable-background:new 0 0 970 194.1;" xml:space="preserve">
<style type="text/css">
	.st0{fill:url(#SVGID_1_);}
	.st1{fill:url(#SVGID_2_);}
	.st2{fill:url(#SVGID_3_);}
	.st3{fill:url(#SVGID_4_);}
	.st4{fill:#221F1F;}
	.st5{fill:url(#SVGID_5_);}
	.st6{fill:url(#SVGID_6_);}
	.st7{fill:url(#SVGID_7_);}
</style>
<title>Artboard 2</title>
<linearGradient id="SVGID_1_" gradientUnits="userSpaceOnUse" x1="710.0828" y1="-226.6306" x2="790.7761" y2="-226.6306" gradientTransform="matrix(0.7327 0.6806 0.6806 -0.7327 -315.8687 -578.6522)">
	<stop  offset="0" style="stop-color:#FBBA16"/>
	<stop  offset="1.000000e-02" style="stop-color:#FBB916"/>
	<stop  offset="0.13" style="stop-color:#F9B11A"/>
	<stop  offset="0.33" style="stop-color:#F9AE1B"/>
	<stop  offset="0.41" style="stop-color:#F7A81C"/>
	<stop  offset="1" style="stop-color:#E87A24"/>
</linearGradient>
<path class="st0" d="M132.7,87.9c-3.4-2.8-8.4-2.4-11.3,0.9l-47,50.6c-3,3.2-8.1,3.4-11.3,0.4c-3.2-3-3.4-8.1-0.4-11.3l43.2-46.6
	c3-3.3,2.8-8.4-0.4-11.5c-3.3-3-8.4-2.8-11.5,0.4l0,0l-22.3,24c-3,3.2-8.1,3.4-11.3,0.4c-3.2-3-3.4-8.1-0.4-11.3l0,0l51.8-55.7
	c3-3.2,3-8.2,0-11.3c-3.1-3.2-8.2-3.3-11.4-0.1c-0.1,0.1-0.2,0.2-0.3,0.3L30,92.3c-3,3.2-3,8.2,0,11.3c3.1,3.2,8.2,3.3,11.4,0.1
	c0.1-0.1,0.2-0.2,0.3-0.3l3.1-3.3c3-3.2,8.1-3.4,11.3-0.4c3.2,3,3.4,8.1,0.4,11.3l0,0l-32.7,35.2c-3,3.3-2.8,8.4,0.4,11.5
	c3.3,3,8.4,2.8,11.5-0.4l11.7-12.6c3.1-3.2,8.1-3.3,11.3-0.2c3.1,3,3.3,7.9,0.4,11.1l-7.7,8.3c-3,3.2-3,8.2,0,11.3
	c3.1,3.2,8.3,3.3,11.5,0.1c0.1-0.1,0.2-0.2,0.3-0.3l70.1-75.5c3-3.3,2.9-8.4-0.4-11.4C132.9,88,132.8,88,132.7,87.9z"/>
<linearGradient id="SVGID_2_" gradientUnits="userSpaceOnUse" x1="703.8644" y1="-226.6306" x2="798.1779" y2="-226.6306" gradientTransform="matrix(0.7327 0.6806 0.6806 -0.7327 -315.8687 -578.6522)">
	<stop  offset="0" style="stop-color:#FBBA16"/>
	<stop  offset="1.000000e-02" style="stop-color:#FBB916"/>
	<stop  offset="0.13" style="stop-color:#F9B11A"/>
	<stop  offset="0.33" style="stop-color:#F9AE1B"/>
	<stop  offset="0.41" style="stop-color:#F7A81C"/>
	<stop  offset="1" style="stop-color:#E87A24"/>
</linearGradient>
<path class="st1" d="M132.7,87.9c-3.4-2.8-8.4-2.4-11.3,0.9l-47,50.6c-3,3.2-8.1,3.4-11.3,0.4c-3.2-3-3.4-8.1-0.4-11.3l43.2-46.6
	c3-3.3,2.8-8.4-0.4-11.5c-3.3-3-8.4-2.8-11.5,0.4l0,0l-22.3,24c-3,3.2-8.1,3.4-11.3,0.4c-3.2-3-3.4-8.1-0.4-11.3l0,0l51.8-55.7
	c3-3.2,3-8.2,0-11.3c-3.1-3.2-8.2-3.3-11.4-0.1c-0.1,0.1-0.2,0.2-0.3,0.3L30,92.3c-3,3.2-3,8.2,0,11.3c3.1,3.2,8.2,3.3,11.4,0.1
	c0.1-0.1,0.2-0.2,0.3-0.3l3.1-3.3c3-3.2,8.1-3.4,11.3-0.4c3.2,3,3.4,8.1,0.4,11.3l0,0l-32.7,35.2c-3,3.3-2.8,8.4,0.4,11.5
	c3.3,3,8.4,2.8,11.5-0.4l11.7-12.6c3.1-3.2,8.1-3.3,11.3-0.2c3.1,3,3.3,7.9,0.4,11.1l-7.7,8.3c-3,3.2-3,8.2,0,11.3
	c3.1,3.2,8.3,3.3,11.5,0.1c0.1-0.1,0.2-0.2,0.3-0.3l70.1-75.5c3-3.3,2.9-8.4-0.4-11.4C132.9,88,132.8,88,132.7,87.9z"/>
<linearGradient id="SVGID_3_" gradientUnits="userSpaceOnUse" x1="742.2842" y1="-173.7903" x2="758.4721" y2="-173.7903" gradientTransform="matrix(0.7327 0.6806 0.6806 -0.7327 -315.8044 -578.631)">
	<stop  offset="0" style="stop-color:#FBBA16"/>
	<stop  offset="1.000000e-02" style="stop-color:#FBB916"/>
	<stop  offset="0.13" style="stop-color:#F9B11A"/>
	<stop  offset="0.33" style="stop-color:#F9AE1B"/>
	<stop  offset="0.41" style="stop-color:#F7A81C"/>
	<stop  offset="1" style="stop-color:#E87A24"/>
</linearGradient>
<circle class="st2" cx="115.7" cy="59.4" r="8.1"/>
<linearGradient id="SVGID_4_" gradientUnits="userSpaceOnUse" x1="703.8517" y1="-173.7903" x2="798.1651" y2="-173.7903" gradientTransform="matrix(0.7327 0.6806 0.6806 -0.7327 -315.8044 -578.631)">
	<stop  offset="0" style="stop-color:#FBBA16"/>
	<stop  offset="1.000000e-02" style="stop-color:#FBB916"/>
	<stop  offset="0.13" style="stop-color:#F9B11A"/>
	<stop  offset="0.33" style="stop-color:#F9AE1B"/>
	<stop  offset="0.41" style="stop-color:#F7A81C"/>
	<stop  offset="1" style="stop-color:#E87A24"/>
</linearGradient>
<circle class="st3" cx="115.7" cy="59.4" r="8.1"/>
<path class="st4" d="M237.1,111.7c3.7,1.5,5.5,5.6,4,9.3c-0.3,0.8-0.8,1.6-1.4,2.3l-0.1,0.1c-2.4,2.4-5.1,4.6-8,6.3
	c-6.1,3.6-13.1,5.5-20.1,5.5c-5.2,0-10.4-1-15.2-3.1c-9.4-4-16.9-11.5-20.9-20.9c-4.1-9.7-4.1-20.7,0-30.4
	c4-9.4,11.5-16.9,20.9-20.9c4.8-2.1,10-3.1,15.2-3.1c7.1,0,14.1,1.9,20.2,5.5c2.9,1.8,5.6,3.9,8,6.3l0.1,0.1
	c2.7,2.9,2.5,7.4-0.3,10.1c-0.7,0.6-1.4,1.1-2.3,1.4l0,0c-2.7,1.1-5.9,0.4-7.9-1.7c-0.3-0.3-0.6-0.6-0.9-1c-1.5-1.5-3.1-2.7-4.9-3.8
	c-1.8-1.1-3.7-1.9-5.7-2.5c-2-0.6-4.1-0.9-6.2-0.9c-3.3,0-6.7,0.7-9.7,2.1c-2.9,1.4-5.6,3.3-7.8,5.7c-2.2,2.4-4,5.2-5.3,8.2
	c-2.6,6.3-2.6,13.4,0,19.6c1.3,3,3,5.8,5.3,8.2c2.2,2.4,4.9,4.3,7.8,5.6c3,1.4,6.3,2.2,9.7,2.1c2.1,0,4.2-0.3,6.2-0.9
	c2-0.6,3.9-1.5,5.7-2.6c1.8-1.1,3.4-2.4,4.9-3.9c0.3-0.3,0.6-0.6,0.9-0.9C231.2,111.2,234.4,110.5,237.1,111.7L237.1,111.7z"/>
<path class="st4" d="M264.4,133.8h-0.5c-3.9,0-7-3.1-7-7V62.1c0-2.3,1.8-4.1,4.1-4.1c0,0,0,0,0,0h30.4c3.6,0,7.3,0.6,10.6,1.9
	c3.1,1.2,5.9,3,8.3,5.4c2.3,2.4,4.1,5.2,5.3,8.3c1.3,3.3,2,6.9,1.9,10.5c0.1,5.3-1.4,10.5-4.3,15c-2.8,4.2-6.8,7.4-11.5,9.2
	c3.6,4.8,7.2,9.5,10.7,14.3c2.3,3.1,1.6,7.5-1.5,9.8c-1.2,0.9-2.7,1.4-4.2,1.4l0,0c-2.2,0-4.3-1-5.6-2.8c-2.3-3-4.5-6.1-6.8-9.1
	c-2.9-4-5.8-8.1-8.7-12.2h-14.4v17.1C271.4,130.6,268.3,133.8,264.4,133.8C264.4,133.8,264.4,133.8,264.4,133.8z M271.4,96.8h19.9
	c1.4,0,2.8-0.3,4.1-0.8c1.4-0.5,2.7-1.3,3.8-2.4c1.2-1.2,2.1-2.5,2.7-4c0.8-1.8,1.1-3.7,1.1-5.6c0-1.3-0.2-2.6-0.4-3.9
	c-0.3-1.5-0.8-3-1.6-4.3c-0.9-1.4-2.1-2.6-3.5-3.5c-1.9-1-4-1.6-6.1-1.4h-19.9V96.8z"/>
<path class="st4" d="M346,70.8v19h30.2c3.5,0,6.4,2.9,6.4,6.4c0,0,0,0,0,0v0.3c0,3.5-2.9,6.4-6.4,6.4l0,0H346v17.8h34.9
	c3.5,0,6.4,2.9,6.4,6.4c0,0,0,0,0,0v0.2c0,3.5-2.9,6.4-6.4,6.4l0,0h-45.3c-2.3,0-4.1-1.8-4.1-4.1c0,0,0,0,0,0V62.1
	c0-2.3,1.8-4.1,4.1-4.1c0,0,0,0,0,0h45.3c3.5,0,6.4,2.9,6.4,6.4c0,0,0,0,0,0l0,0c0,3.5-2.9,6.4-6.4,6.4c0,0,0,0,0,0L346,70.8z"/>
<path class="st4" d="M466.7,123.6l-27.1-60.9c-1.8-4-6.4-5.8-10.4-4c-1.8,0.8-3.2,2.2-4,4l-27.1,60.9c-1.7,3.5-0.3,7.7,3.1,9.4
	c0.9,0.4,1.9,0.7,2.9,0.7c2.8-0.1,5.3-1.8,6.7-4.2l3.7-7.7h35.7l4,8c1.2,2.4,3.6,3.9,6.2,3.9l0,0c3.9,0,7-3.2,6.9-7.1
	C467.4,125.6,467.2,124.6,466.7,123.6z M421.6,109.2l10.9-25.4l10.8,25.4H421.6z"/>
<path class="st4" d="M514.3,70.8H499v55.7c0,4-3.2,7.2-7.3,7.3l0,0c-4,0-7.3-3.2-7.3-7.3l0,0V70.8h-15.3c-3.5,0-6.4-2.9-6.4-6.4
	c0,0,0,0,0,0l0,0c0-3.5,2.9-6.4,6.4-6.4c0,0,0,0,0,0h45c3.5,0,6.4,2.9,6.4,6.4c0,0,0,0,0,0l0,0C520.7,67.9,517.8,70.8,514.3,70.8
	C514.3,70.8,514.3,70.8,514.3,70.8z"/>
<path class="st4" d="M539.9,133.8L539.9,133.8c-4,0-7.2-3.2-7.3-7.3V65.3c0-4,3.2-7.2,7.3-7.3l0,0c4,0,7.3,3.2,7.3,7.3v61.2
	C547.2,130.5,543.9,133.8,539.9,133.8L539.9,133.8z"/>
<path class="st4" d="M620.3,58.1L620.3,58.1c-2.9,0-5.4,1.6-6.6,4.2l-18.4,43.4l-18.4-43.1c-1.2-2.7-3.8-4.4-6.8-4.5
	c-4,0.1-7.1,3.3-7.1,7.3c0,1,0.3,2,0.7,3l26.5,62.3c1.1,2.8,4.3,4.1,7.1,2.9c1.3-0.5,2.4-1.6,2.9-2.9l26.5-62.3
	c1.7-3.6,0.2-7.9-3.4-9.6C622.4,58.3,621.4,58.1,620.3,58.1z"/>
<path class="st4" d="M655,70.8v19h30.2c3.5,0,6.4,2.9,6.4,6.4v0.3c0,3.5-2.9,6.4-6.4,6.4H655v17.8h34.9c3.5,0,6.4,2.9,6.4,6.4
	c0,0,0,0,0,0v0.2c0,3.5-2.9,6.4-6.4,6.4h-45.3c-2.3,0-4.1-1.8-4.1-4.1v0V62.1c0-2.3,1.8-4.1,4.1-4.1l0,0h45.3c3.5,0,6.4,2.9,6.4,6.4
	c0,0,0,0,0,0l0,0c0,3.5-2.9,6.4-6.4,6.4c0,0,0,0,0,0L655,70.8z"/>
<linearGradient id="SVGID_5_" gradientUnits="userSpaceOnUse" x1="738.4695" y1="100.1135" x2="918.9095" y2="100.4735" gradientTransform="matrix(1 0 0 -1 0 196.26)">
	<stop  offset="0" style="stop-color:#F1991F"/>
	<stop  offset="0.39" style="stop-color:#EF981F"/>
	<stop  offset="0.53" style="stop-color:#E89220"/>
	<stop  offset="0.63" style="stop-color:#DD8922"/>
	<stop  offset="0.71" style="stop-color:#CC7D25"/>
	<stop  offset="0.78" style="stop-color:#B66C28"/>
	<stop  offset="0.79" style="stop-color:#B36A29"/>
	<stop  offset="0.84" style="stop-color:#AD6428"/>
	<stop  offset="1" style="stop-color:#9D5324"/>
</linearGradient>
<path class="st5" d="M791.8,65.4v61.3c0,4-3.2,7.3-7.3,7.3l0,0l0,0c-4,0-7.2-3.2-7.3-7.2c0,0,0,0,0,0v-22.9h-37.4v22.9
	c0,4-3.2,7.2-7.2,7.3c0,0,0,0,0,0l0,0c-4,0-7.3-3.2-7.3-7.3l0,0V65.4c0-4,3.2-7.3,7.3-7.3l0,0l0,0c4,0,7.2,3.2,7.3,7.2c0,0,0,0,0,0
	V91h37.4V65.4c0-4,3.2-7.2,7.2-7.3c0,0,0,0,0,0l0,0C788.6,58.2,791.8,61.4,791.8,65.4L791.8,65.4z"/>
<linearGradient id="SVGID_6_" gradientUnits="userSpaceOnUse" x1="737.9996" y1="99.2472" x2="918.4796" y2="99.6072" gradientTransform="matrix(1 0 0 -1 0 196.26)">
	<stop  offset="0" style="stop-color:#FBBA16"/>
	<stop  offset="1.000000e-02" style="stop-color:#FBB916"/>
	<stop  offset="0.13" style="stop-color:#F9B11A"/>
	<stop  offset="0.33" style="stop-color:#F9AE1B"/>
	<stop  offset="0.46" style="stop-color:#F39B1E"/>
	<stop  offset="0.63" style="stop-color:#ED8921"/>
	<stop  offset="0.8" style="stop-color:#E97E23"/>
	<stop  offset="1" style="stop-color:#E87A24"/>
</linearGradient>
<path class="st6" d="M840.8,135.3c-4.6,0.1-9.1-0.7-13.4-2.3c-3.8-1.4-7.3-3.6-10.3-6.4c-2.9-2.8-5.1-6.2-6.6-10
	c-1.6-4.2-2.4-8.7-2.3-13.2V65.5c0-4,3.2-7.3,7.3-7.3l0,0c4,0,7.3,3.2,7.3,7.3v37.8c-0.1,3.2,0.5,6.5,1.9,9.4
	c1.1,2.3,2.7,4.3,4.6,5.9c1.7,1.4,3.8,2.4,5.9,3c3.7,1.1,7.6,1.1,11.3,0c2.2-0.6,4.2-1.6,5.9-3c2-1.6,3.5-3.6,4.6-5.9
	c1.3-3,2-6.2,1.9-9.4V65.5c0-4,3.2-7.3,7.3-7.3l0,0c4,0,7.3,3.2,7.3,7.3v37.9c0.1,4.5-0.7,9-2.3,13.2c-1.4,3.8-3.6,7.2-6.5,10
	c-2.9,2.8-6.4,5-10.3,6.4C850,134.6,845.4,135.4,840.8,135.3z"/>
<linearGradient id="SVGID_7_" gradientUnits="userSpaceOnUse" x1="738.0095" y1="99.8313" x2="918.4995" y2="100.1913" gradientTransform="matrix(1 0 0 -1 0 196.26)">
	<stop  offset="0" style="stop-color:#FBBA16"/>
	<stop  offset="1.000000e-02" style="stop-color:#FBB916"/>
	<stop  offset="0.13" style="stop-color:#F9B11A"/>
	<stop  offset="0.33" style="stop-color:#F9AE1B"/>
	<stop  offset="0.46" style="stop-color:#F39B1E"/>
	<stop  offset="0.63" style="stop-color:#ED8921"/>
	<stop  offset="0.8" style="stop-color:#E97E23"/>
	<stop  offset="1" style="stop-color:#E87A24"/>
</linearGradient>
<path class="st7" d="M945.4,79.3c0,1.7-0.3,3.3-0.9,4.9c-0.6,1.7-1.5,3.3-2.5,4.8c-1.1,1.4-2.4,2.7-3.9,3.7c-1.5,1-3.2,1.5-5,1.6
	c1.9,0.2,3.8,0.7,5.5,1.6c1.9,0.9,3.5,2.2,4.9,3.8c1.5,1.6,2.7,3.5,3.6,5.5c0.9,2.1,1.4,4.3,1.4,6.6c0.1,3.6-0.5,7.1-1.8,10.5
	c-1.1,2.7-2.9,5.1-5.1,6.9c-2.2,1.8-4.8,3.1-7.5,3.8c-3,0.8-6.1,1.1-9.2,1.1H894c-2.3,0-4.1-1.8-4.1-4.1v0V62.3
	c0-2.3,1.8-4.1,4.1-4.1l0,0h29.3c2.9,0,5.8,0.3,8.6,0.9c2.5,0.5,4.9,1.6,7,3.2c2.1,1.7,3.7,3.9,4.8,6.4
	C944.9,72.1,945.5,75.7,945.4,79.3z M904.4,89.1h17.8c1.3,0,2.6-0.3,3.8-0.8c1-0.5,2-1.3,2.7-2.2c0.7-0.9,1.3-2,1.7-3.1
	c0.4-1.1,0.6-2.2,0.6-3.4c0-1.1-0.2-2.2-0.6-3.2c-0.4-1-1-1.9-1.7-2.7c-0.7-0.8-1.5-1.4-2.4-1.9c-0.9-0.5-2-0.7-3-0.7h-18.8
	L904.4,89.1z M924.9,121.1c1.2,0,2.4-0.3,3.5-0.9c1.1-0.6,2.1-1.4,2.9-2.4c0.8-1,1.5-2.1,2-3.3c0.5-1.2,0.7-2.4,0.7-3.7
	c0-2.5-1-4.8-2.8-6.4c-2.2-1.8-5-2.8-7.8-2.6h-19v19.3H924.9z"/>
</svg>
